<?xml version="1.0" encoding="utf-8"?>
<!-- Generator: Adobe Illustrator 24.1.2, SVG Export Plug-In . SVG Version: 6.00 Build 0)  -->
<svg version="1.1" id="Layer_1" xmlns="http://www.w3.org/2000/svg" xmlns:xlink="http://www.w3.org/1999/xlink" x="0px" y="0px"
	 viewBox="0 0 80 80" style="enable-background:new 0 0 80 80;" xml:space="preserve">
<path d="M57.1,40L57.1,40c0-0.8-0.6-1.4-1.4-1.4l-34.3,0c-0.8,0-1.4,0.6-1.4,1.4l0,0c0,0.8,0.6,1.4,1.4,1.4h34.3
	C56.5,41.4,57.1,40.8,57.1,40z"/>
<path d="M44.8,24.8c-0.6-0.6-1.5-0.6-2,0c-0.6,0.6-0.6,1.5,0,2L58,42l2-2L44.8,24.8z"/>
<path d="M42.8,53.1c-0.6,0.6-0.6,1.5,0,2c0.6,0.6,1.5,0.6,2,0L60,40l-2-2L42.8,53.1z"/>
</svg>
