<?xml version="1.0" encoding="utf-8"?>
<!-- Generator: Adobe Illustrator 24.1.2, SVG Export Plug-In . SVG Version: 6.00 Build 0)  -->
<svg version="1.1" id="Layer_1" xmlns="http://www.w3.org/2000/svg" xmlns:xlink="http://www.w3.org/1999/xlink" x="0px" y="0px"
	 viewBox="0 0 80 80" style="enable-background:new 0 0 80 80;" xml:space="preserve">
<path d="M22.9,40L22.9,40c0-0.8,0.6-1.4,1.4-1.4h34.3c0.8,0,1.4,0.6,1.4,1.4l0,0c0,0.8-0.6,1.4-1.4,1.4H24.3
	C23.5,41.4,22.9,40.8,22.9,40z"/>
<path d="M35.2,24.8c0.6-0.6,1.5-0.6,2,0c0.6,0.6,0.6,1.5,0,2L22,42l-2-2L35.2,24.8z"/>
<path d="M37.2,53.1c0.6,0.6,0.6,1.5,0,2c-0.6,0.6-1.5,0.6-2,0L20,40l2-2L37.2,53.1z"/>
</svg>
